#!OML:ASF F:\VICON\USERDATA\INSTALL\rory3\rory3.ASF
:FULLY-SPECIFIED
:DEGREES
409
root 4.43542 17.7741 13.4703 -1.23074 185.486 0.78911
lowerback 13.9293 0.281109 -3.34289
upperback 0.371942 -0.185207 1.07854
thorax -7.42283 0.00345834 3.08592
lowerneck -17.6885 -6.44665 -12.2678
upperneck 29.544 -11.0325 10.5019
head 14.4033 -5.47811 4.19417
rclavicle 3.55949e-015 -8.64713e-015
rhumerus -42.7346 -25.6653 -70.6038
rradius 31.2411
rwrist 11.2146
rhand -16.2506 8.18956
rfingers 7.12502
rthumb 9.95839 -21.5549
lclavicle 3.55949e-015 -8.64713e-015
lhumerus -33.2578 3.86345 83.0747
lradius 32.9802
lwrist -3.58283
lhand -20.3456 23.2071
lfingers 7.12502
lthumb 6.00612 53.102
rfemur -15.7692 -11.6561 14.6678
rtibia 46.7885
rfoot -24.5109 6.25643
rtoes -24.2281
lfemur -6.02192 -3.94062 -17.7245
ltibia 27.0938
lfoot -16.5359 -1.92349
ltoes -5.03019
410
root 4.49909 17.7847 13.4742 -1.24592 185.669 0.884271
lowerback 13.9824 0.221708 -3.21526
upperback 0.284201 -0.236884 1.14335
thorax -7.54294 -0.0193508 3.09437
lowerneck -17.5222 -6.3346 -12.3354
upperneck 29.505 -10.7678 10.3044
head 14.2978 -5.39794 4.18024
rclavicle 8.35478e-015 -4.04092e-015
rhumerus -42.9495 -25.9434 -70.256
rradius 31.1685
rwrist 11.2392
rhand -16.2044 8.29596
rfingers 7.12502
rthumb 10.003 -21.4463
lclavicle 8.35478e-015 -4.04092e-015
lhumerus -33.5003 4.41477 82.7838
lradius 33.1241
lwrist -3.61433
lhand -20.0704 23.5203
lfingers 7.12502
lthumb 6.27184 53.4074
rfemur -15.4976 -11.1032 14.0862
rtibia 46.3701
rfoot -23.3618 5.42692
rtoes -22.7196
lfemur -5.86213 -4.15175 -17.394
ltibia 26.6421
lfoot -16.2699 -1.94324
ltoes -5.19741
411
root 4.563 17.7965 13.4742 -1.28919 185.772 0.973148
lowerback 14.0078 0.209257 -3.05912
upperback 0.276715 -0.226397 1.18242
thorax -7.56622 -0.0187727 3.04569
lowerneck -17.5846 -6.28842 -12.3597
upperneck 29.4984 -10.6083 10.1777
head 14.2769 -5.33754 4.16334
rclavicle 4.42529e-015 -1.22625e-014
rhumerus -43.0682 -26.6187 -69.8018
rradius 31.0428
rwrist 11.4207
rhand -16.1299 8.1326
rfingers 7.12502
rthumb 10.0749 -21.6062
lclavicle 4.42529e-015 -1.22625e-014
lhumerus -33.5687 4.64918 82.6067
lradius 33.258
lwrist -3.43104
lhand -19.9854 24.4175
lfingers 7.12502
lthumb 6.35393 54.3022
rfemur -15.1659 -10.4998 13.4596
rtibia 45.8464
rfoot -22.023 4.8094
rtoes -20.7671
lfemur -5.63874 -4.34332 -17.0681
ltibia 26.2197
lfoot -15.9757 -1.92169
ltoes -5.22499
412
root 4.62362 17.8103 13.4701 -1.29786 185.816 0.870285
lowerback 13.9343 0.244871 -3.05022
upperback 0.322159 -0.178209 1.16373
thorax -7.47964 0.000873329 3.00963
lowerneck -17.7719 -6.30623 -12.3801
upperneck 29.493 -10.5345 10.0858
head 14.3001 -5.30155 4.14084
rclavicle 3.16813e-015 -9.95166e-015
rhumerus -43.0595 -27.0423 -69.5348
rradius 30.9605
rwrist 10.9987
rhand -16.4336 7.87781
rfingers 7.12502
rthumb 9.78181 -21.875
lclavicle 3.16813e-015 -9.95166e-015
lhumerus -33.4544 4.92245 82.4554
lradius 33.2389
lwrist -3.20212
lhand -19.8844 25.138
lfingers 7.12502
lthumb 6.45138 55.0198
rfemur -14.8041 -9.8222 12.5711
rtibia 45.2417
rfoot -20.8213 4.37029
rtoes -18.6836
lfemur -5.43033 -4.46029 -16.9795
ltibia 25.8317
lfoot -15.7251 -1.85008
ltoes -5.67983
413
root 4.68969 17.8231 13.4689 -1.3498 185.964 0.876541
lowerback 13.9883 0.212616 -2.98532
upperback 0.306399 -0.211049 1.17827
thorax -7.52459 -0.0159694 2.99569
lowerneck -17.8632 -6.29213 -12.3905
upperneck 29.5127 -10.444 9.98016
head 14.3086 -5.2684 4.11608
rclavicle 3.90736e-015 -9.44227e-015
rhumerus -43.1516 -27.3309 -69.3141
rradius 31.0062
rwrist 10.4366
rhand -16.7862 7.37458
rfingers 7.12502
rthumb 9.44168 -22.3939
lclavicle 3.90736e-015 -9.44227e-015
lhumerus -33.479 5.33328 82.1887
lradius 33.2195
lwrist -2.98995
lhand -19.8801 25.2687
lfingers 7.12502
lthumb 6.45556 55.1503
rfemur -14.3193 -9.09299 11.8105
rtibia 44.5842
rfoot -19.9328 3.72268
rtoes -16.9914
lfemur -5.23665 -4.64981 -16.7534
ltibia 25.4481
lfoot -15.5631 -1.81971
ltoes -6.44217
414
root 4.75956 17.8322 13.4674 -1.39286 186.128 0.937386
lowerback 14.0032 0.170671 -2.85457
upperback 0.292617 -0.245191 1.18539
thorax -7.54542 -0.0363764 2.93615
lowerneck -17.9755 -6.27113 -12.3143
upperneck 29.5949 -10.3608 9.80308
head 14.3395 -5.24 4.0459
rclavicle 2.3233e-015 -6.48535e-015
rhumerus -43.3983 -27.899 -68.9251
rradius 31.1391
rwrist 10.2315
rhand -16.8964 6.99771
rfingers 7.12502
rthumb 9.3353 -22.7756
lclavicle 2.3233e-015 -6.48535e-015
lhumerus -33.5975 5.48753 81.9503
lradius 33.3332
lwrist -2.60578
lhand -19.8145 25.488
lfingers 7.12502
lthumb 6.51892 55.3677
rfemur -13.7939 -8.31955 11.1263
rtibia 43.8994
rfoot -19.257 2.92521
rtoes -14.8149
lfemur -5.08683 -4.71442 -16.4283
ltibia 25.0884
lfoot -15.413 -1.97139
ltoes -7.21134
415
root 4.82858 17.835 13.4638 -1.38643 186.245 0.827333
lowerback 13.9427 0.160649 -2.83432
upperback 0.307986 -0.257092 1.13407
thorax -7.4942 -0.0448997 2.87121
lowerneck -18.0682 -6.25326 -12.284
upperneck 29.5393 -10.2651 9.72565
head 14.3142 -5.19214 4.02585
rclavicle 1.58841e-014 2.01269e-015
rhumerus -43.5697 -28.2933 -68.6388
rradius 31.3089
rwrist 9.72756
rhand -16.8653 6.86708
rfingers 7.12502
rthumb 9.36528 -22.9049
lclavicle 1.58841e-014 2.01269e-015
lhumerus -33.648 5.57163 81.7593
lradius 33.4667
lwrist -2.184
lhand -19.684 25.6252
lfingers 7.12502
lthumb 6.64484 55.501
rfemur -13.3232 -7.56701 10.2481
rtibia 43.1749
rfoot -18.8128 2.03372
rtoes -13.3326
lfemur -4.9606 -4.81062 -16.3043
ltibia 24.7789
lfoot -15.3238 -1.99486
ltoes -7.6845
416
root 4.89764 17.8362 13.4609 -1.40642 186.39 0.778354
lowerback 13.941 0.128088 -2.77752
upperback 0.311282 -0.290862 1.14142
thorax -7.48741 -0.0634899 2.85351
lowerneck -18.1773 -6.22225 -12.3783
upperneck 29.5016 -10.164 9.7866
head 14.3174 -5.14096 4.08556
rclavicle -8.46698e-015 -1.3418e-015
rhumerus -43.6848 -28.5123 -68.3717
rradius 31.4555
rwrist 9.20022
rhand -16.8654 6.74452
rfingers 7.12502
rthumb 9.36526 -23.0274
lclavicle -8.46698e-015 -1.3418e-015
lhumerus -33.7071 5.69682 81.638
lradius 33.528
lwrist -1.79683
lhand -19.6544 25.5072
lfingers 7.12502
lthumb 6.67348 55.382
rfemur -12.8148 -6.85272 9.44411
rtibia 42.3944
rfoot -18.2951 1.05956
rtoes -13.1564
lfemur -4.83115 -4.95974 -16.1066
ltibia 24.5023
lfoot -15.1972 -2.02798
ltoes -8.10297
417
root 4.9671 17.8361 13.4541 -1.46427 186.514 0.764412
lowerback 13.9896 0.142736 -2.7241
upperback 0.260711 -0.259291 1.17917
thorax -7.57133 -0.0462397 2.85822
lowerneck -18.1442 -6.22491 -12.4491
upperneck 29.5301 -10.1382 9.74668
head 14.3207 -5.14447 4.08758
rclavicle 8.15638e-015 4.47266e-015
rhumerus -43.9378 -28.9411 -67.8272
rradius 31.4274
rwrist 8.95632
rhand -17.0145 6.75698
rfingers 7.12502
rthumb 9.22139 -23.0214
lclavicle 8.15638e-015 4.47266e-015
lhumerus -33.8147 5.79352 81.5751
lradius 33.5002
lwrist -1.64608
lhand -19.56 25.6681
lfingers 7.12502
lthumb 6.76456 55.54
rfemur -12.2182 -6.1059 8.66601
rtibia 41.5481
rfoot -17.7163 0.229052
rtoes -11.527
lfemur -4.66345 -5.03972 -15.8657
ltibia 24.2275
lfoot -15.0947 -2.10078
ltoes -8.59253
